# xmcd CD database file
#
# Track frame offsets:
#	150
#	18797
#	36049
#	47266
#	68949
#	93044
#	109503
#	124447
#	145350
#	159347
#
# Disc length: 2303 seconds
#
# Revision: 0
# Processed by: cddbd v1.5.2PL0 Copyright (c) Steve Scherf et al.
# Submitted via: CDex 1.70beta2
#
DISCID=7608fd0a
DTITLE=Woodleg Odd - Foot fetish
DYEAR=2006
DGENRE=Blues
TTITLE0=Just around midnight
TTITLE1=It's not easy to be strong
TTITLE2=Smiling face
TTITLE3=Love is a hazard
TTITLE4=Lead us to the light
TTITLE5=Set yourself free
TTITLE6=Flip my mind
TTITLE7=Packed my stuff
TTITLE8=A dream within a dream
TTITLE9=Foot fetish
EXTD=YEAR: 2006
EXTT0=
EXTT1=
EXTT2=
EXTT3=
EXTT4=
EXTT5=
EXTT6=
EXTT7=
EXTT8=
EXTT9=
PLAYORDER=
